<svg width="397" height="397" viewBox="0 0 397 397" fill="none" xmlns="http://www.w3.org/2000/svg">
<path d="M198.345 198.336C198.345 198.336 136.978 168.726 136.978 100.104C136.978 31.4812 198.345 0 198.345 0V198.336Z" fill="#0D5964" fill-opacity="0.5"/>
<path d="M198.345 198.336C198.345 198.336 259.712 168.726 259.712 100.104C259.712 31.4812 198.345 0 198.345 0V198.336Z" fill="#22707A" fill-opacity="0.5"/>
<path d="M198.345 198.337C198.345 198.337 134.016 220.791 85.4927 172.268C36.9698 123.741 58.0998 58.0908 58.0998 58.0908L198.345 198.337Z" fill="#0D5964" fill-opacity="0.5"/>
<path d="M198.345 198.337C198.345 198.337 220.8 134.007 172.277 85.4839C123.754 36.961 58.0996 58.091 58.0996 58.091L198.345 198.337Z" fill="#22707A" fill-opacity="0.5"/>
<path d="M198.345 198.336C198.345 198.336 168.735 259.703 100.112 259.703C31.49 259.703 0.00878906 198.336 0.00878906 198.336H198.345Z" fill="#0D5964" fill-opacity="0.5"/>
<path d="M198.345 198.336C198.345 198.336 168.735 136.969 100.112 136.969C31.49 136.969 0.00878906 198.336 0.00878906 198.336H198.345Z" fill="#22707A" fill-opacity="0.5"/>
<path d="M198.35 198.336C198.35 198.336 220.805 262.666 172.282 311.189C123.754 359.717 58.0996 338.582 58.0996 338.582L198.35 198.336Z" fill="#0D5964" fill-opacity="0.5"/>
<path d="M198.345 198.337C198.345 198.337 134.016 175.882 85.4927 224.405C36.9698 272.932 58.0998 338.582 58.0998 338.582L198.345 198.337Z" fill="#22707A" fill-opacity="0.5"/>
<path d="M198.35 198.336C198.35 198.336 259.717 227.947 259.717 296.569C259.717 365.196 198.35 396.673 198.35 396.673V198.336Z" fill="#0D5964" fill-opacity="0.5"/>
<path d="M198.345 198.336C198.345 198.336 136.978 227.947 136.978 296.569C136.978 365.196 198.345 396.673 198.345 396.673V198.336Z" fill="#22707A" fill-opacity="0.5"/>
<path d="M198.35 198.337C198.35 198.337 262.68 175.882 311.203 224.405C359.73 272.928 338.596 338.582 338.596 338.582L198.35 198.337Z" fill="#0D5964" fill-opacity="0.5"/>
<path d="M198.345 198.336C198.345 198.336 175.89 262.666 224.413 311.189C272.936 359.712 338.591 338.582 338.591 338.582L198.345 198.336Z" fill="#22707A" fill-opacity="0.5"/>
<path d="M198.345 198.336C198.345 198.336 227.956 136.969 296.578 136.969C365.205 136.969 396.682 198.336 396.682 198.336H198.345Z" fill="#0D5964" fill-opacity="0.5"/>
<path d="M198.345 198.336C198.345 198.336 227.956 259.703 296.578 259.703C365.205 259.703 396.682 198.336 396.682 198.336H198.345Z" fill="#22707A" fill-opacity="0.5"/>
<path d="M198.345 198.337C198.345 198.337 175.89 134.007 224.413 85.4839C272.936 36.961 338.591 58.091 338.591 58.091L198.345 198.337Z" fill="#0D5964" fill-opacity="0.5"/>
<path d="M198.345 198.337C198.345 198.337 262.675 220.791 311.198 172.268C359.721 123.746 338.591 58.0908 338.591 58.0908L198.345 198.337Z" fill="#22707A" fill-opacity="0.5"/>
<path d="M198.346 198.336C198.346 198.336 139.562 194.993 116.87 140.203C94.1776 85.412 132.757 39.9897 132.757 39.9897L198.346 198.336Z" fill="#0D5964" fill-opacity="0.5"/>
<path d="M198.346 198.336C198.346 198.336 237.548 154.404 214.856 99.6185C192.164 44.8327 132.758 39.9941 132.758 39.9941L198.346 198.336Z" fill="#22707A" fill-opacity="0.5"/>
<path d="M198.345 198.336C198.345 198.336 154.414 237.538 99.6283 214.846C44.8424 192.154 40.0039 132.748 40.0039 132.748L198.345 198.336Z" fill="#0D5964" fill-opacity="0.5"/>
<path d="M198.346 198.336C198.346 198.336 195.003 139.552 140.212 116.86C85.4265 94.1683 39.9995 132.748 39.9995 132.748L198.346 198.336Z" fill="#22707A" fill-opacity="0.5"/>
<path d="M198.346 198.336C198.346 198.336 195.003 257.12 140.212 279.812C85.4265 302.505 39.9995 263.925 39.9995 263.925L198.346 198.336Z" fill="#0D5964" fill-opacity="0.5"/>
<path d="M198.345 198.336C198.345 198.336 154.414 159.134 99.6283 181.826C44.8424 204.518 40.0039 263.924 40.0039 263.924L198.345 198.336Z" fill="#22707A" fill-opacity="0.5"/>
<path d="M198.351 198.336C198.351 198.336 237.553 242.268 214.861 297.054C192.169 351.839 132.763 356.678 132.763 356.678L198.351 198.336Z" fill="#0D5964" fill-opacity="0.5"/>
<path d="M198.346 198.336C198.346 198.336 139.562 201.679 116.87 256.47C94.1776 311.256 132.757 356.683 132.757 356.683L198.346 198.336Z" fill="#22707A" fill-opacity="0.5"/>
<path d="M198.351 198.336C198.351 198.336 257.135 201.679 279.827 256.47C302.519 311.256 263.939 356.683 263.939 356.683L198.351 198.336Z" fill="#0D5964" fill-opacity="0.5"/>
<path d="M198.346 198.336C198.346 198.336 159.144 242.268 181.836 297.054C204.528 351.839 263.934 356.678 263.934 356.678L198.346 198.336Z" fill="#22707A" fill-opacity="0.5"/>
<path d="M198.346 198.336C198.346 198.336 242.277 159.134 297.063 181.826C351.849 204.518 356.688 263.924 356.688 263.924L198.346 198.336Z" fill="#0D5964" fill-opacity="0.5"/>
<path d="M198.346 198.336C198.346 198.336 201.689 257.12 256.48 279.812C311.265 302.505 356.692 263.925 356.692 263.925L198.346 198.336Z" fill="#22707A" fill-opacity="0.5"/>
<path d="M198.346 198.336C198.346 198.336 201.689 139.552 256.48 116.86C311.27 94.1683 356.692 132.748 356.692 132.748L198.346 198.336Z" fill="#0D5964" fill-opacity="0.5"/>
<path d="M198.346 198.336C198.346 198.336 242.277 237.538 297.063 214.846C351.849 192.154 356.688 132.748 356.688 132.748L198.346 198.336Z" fill="#22707A" fill-opacity="0.5"/>
<path d="M198.346 198.336C198.346 198.336 159.144 154.404 181.836 99.6185C204.528 44.8327 263.934 39.9941 263.934 39.9941L198.346 198.336Z" fill="#0D5964" fill-opacity="0.5"/>
<path d="M198.346 198.336C198.346 198.336 257.13 194.993 279.822 140.203C302.514 85.412 263.934 39.9897 263.934 39.9897L198.346 198.336Z" fill="#22707A" fill-opacity="0.5"/>
<path d="M198.345 65.0273C198.345 65.0273 138.346 93.3557 138.346 182.985C138.346 272.613 198.345 289.626 198.345 289.626V65.0273Z" fill="#22707A" fill-opacity="0.9"/>
<path d="M198.346 65.0273C198.346 65.0273 258.345 93.3557 258.345 182.985C258.345 272.613 198.346 289.626 198.346 289.626V65.0273Z" fill="#0D5964" fill-opacity="0.9"/>
<path d="M291.844 196.132C291.844 247.77 249.983 289.631 198.345 289.631C181.275 289.631 165.283 285.035 151.508 277.043C179.495 260.89 198.345 230.671 198.345 196.033C198.402 144.442 240.24 102.634 291.844 102.634C308.881 102.634 324.835 107.211 338.591 115.174C310.657 131.342 291.844 161.531 291.844 196.132Z" fill="#22707A" fill-opacity="0.9"/>
<path d="M291.844 196.133C291.844 161.532 310.657 131.342 338.591 115.174C283.43 118.773 241.536 140.34 241.536 192.225C241.536 244.109 201.247 274.598 151.508 277.039C165.283 285.03 181.271 289.626 198.345 289.626C249.983 289.631 291.844 247.77 291.844 196.133Z" fill="#0D5964" fill-opacity="0.9"/>
<path d="M104.851 196.132C104.851 247.77 146.712 289.631 198.35 289.631C215.42 289.631 231.413 285.035 245.187 277.043C217.201 260.89 198.35 230.671 198.35 196.033C198.293 144.442 156.456 102.634 104.851 102.634C87.8146 102.634 71.8603 107.211 58.1045 115.174C86.0387 131.342 104.851 161.531 104.851 196.132Z" fill="#0D5964" fill-opacity="0.9"/>
<path d="M104.851 196.133C104.851 161.532 86.0387 131.342 58.1045 115.174C113.265 118.773 155.16 140.34 155.16 192.225C155.16 244.109 195.449 274.598 245.187 277.039C231.413 285.03 215.425 289.626 198.35 289.626C146.708 289.631 104.851 247.77 104.851 196.133Z" fill="#22707A" fill-opacity="0.9"/>
<g filter="url(#filter0_d_1_5822)">
<path d="M11.8467 372.356C11.8467 372.356 34.4819 377.575 45.8018 376.392C57.1217 375.21 85.7587 373.638 101.604 375.31C117.449 376.981 143.826 380.034 154.452 376.098C165.084 372.162 207.301 351.492 234.466 318.62C234.466 318.62 257.034 317.11 276.327 307.533C295.614 297.955 312.675 278.53 312.675 278.53C312.675 278.53 308.772 291.849 308.478 302.481C308.183 313.112 309.56 322.656 307.789 338.701C306.018 354.74 301.194 362.912 301.882 369.308C302.571 375.704 310.049 376.392 314.579 374.916C319.104 373.439 331.212 372.651 339.774 374.721C348.335 376.787 359.802 376.298 362.262 375.951C364.721 375.604 366.787 374.868 366.003 371.867C366.003 371.867 361.231 371.521 357.836 370.884C354.441 370.243 348.829 368.13 348.829 368.13C348.829 368.13 338.264 361.018 331.706 358.32C326.44 356.155 327.229 339.009 328.411 334.128C332.627 316.725 338.924 301.108 342.732 289.299C346.535 277.49 348.767 263.184 348.767 254.589C348.767 245.995 345.619 237.757 334.987 237.006C318.715 235.857 277.97 253.934 260.781 265.415C260.781 265.415 261.042 251.702 261.042 238.711C261.042 225.72 260.059 204.856 253.758 191.864C247.457 178.873 233.288 169.03 222.462 161.945C211.636 154.861 214.39 143.246 217.344 139.505C220.297 135.763 225.577 134.286 228.697 130.616C230.359 128.66 229.699 126.062 228.369 124.481C227.41 123.342 229.157 121.176 228.986 119.552C228.872 118.489 228.151 118.422 228.151 118.422C228.151 118.422 228.345 117.767 228.027 117.117C227.533 116.11 225.919 115.967 225.42 114.581C225.003 113.422 226.209 112.563 226.579 111.874C226.949 111.186 227.168 109.809 224.931 109.215C222.69 108.627 218.73 108.157 217.353 106.632C215.976 105.108 215.088 102.202 213.664 100.725C212.234 99.2487 205.767 90.6068 200.098 89.7664C192.781 88.6838 187.434 91.1766 187.434 91.1766C187.434 91.1766 180.15 83.2707 169.652 74.0828C159.153 64.8948 138.683 45.8684 138.683 45.8684C138.683 45.8684 129.628 36.4857 125.231 33.7317C120.834 30.9777 114.078 28.7128 112.207 27.8913C110.336 27.0699 105.383 25.4317 105.939 28.8742C105.939 28.8742 102.558 27.7251 100.626 27.2361C98.6883 26.7422 97.8384 27.6967 98.2942 29.3348C98.2942 29.3348 95.8014 28.3187 95.1128 29.3016C94.4243 30.2845 95.5402 31.8941 95.5402 31.8941C95.5402 31.8941 94.1964 32.877 95.279 34.7479C96.3617 36.6187 103.593 41.8846 106.58 43.5892C106.58 43.5892 103.332 43.7126 102.767 45.0184C102.202 46.3242 104.662 48.0431 107.321 49.0023C109.98 49.9614 111.29 52.2976 114.766 53.9737C118.242 55.6451 124.804 55.0231 124.804 55.0231C124.804 55.0231 135.663 68.4418 140.649 76.8368C145.635 85.2365 148.522 91.9933 155.017 98.6219C161.513 105.251 165.711 120.668 165.711 120.668C165.711 120.668 157.311 123.294 157.838 129.657C158.365 136.02 165.288 138.569 170.274 137.059C170.274 137.059 171.38 141.532 171.565 149.144C171.75 156.755 176.342 175.388 182.377 185.231C182.377 185.231 185.264 201.242 196.679 214.623C208.094 228.008 213.507 249.888 212.424 258.45C210.848 270.914 181.589 280.89 183.555 305.296C183.555 305.296 153.242 338.496 142.743 345.187C132.245 351.877 126.998 350.434 115.317 348.601C103.636 346.763 88.6789 346.896 80.151 351.488C71.623 356.079 53.2519 359.232 46.8179 358.572C46.8179 358.572 44.6195 355.191 43.4704 352.964C42.3213 350.733 39.534 348.078 34.3489 350.472C29.1638 352.865 25.1325 358.411 20.5029 360.804C15.878 363.197 9.38236 361.986 5.21336 368.021C5.21336 368.021 -0.660286 368.876 0.0614554 373.173L11.8467 372.356Z" fill="white"/>
</g>
<defs>
<filter id="filter0_d_1_5822" x="0" y="26.7747" width="373.172" height="358.248" filterUnits="userSpaceOnUse" color-interpolation-filters="sRGB">
<feFlood flood-opacity="0" result="BackgroundImageFix"/>
<feColorMatrix in="SourceAlpha" type="matrix" values="0 0 0 0 0 0 0 0 0 0 0 0 0 0 0 0 0 0 127 0" result="hardAlpha"/>
<feOffset dx="5" dy="5"/>
<feGaussianBlur stdDeviation="1"/>
<feComposite in2="hardAlpha" operator="out"/>
<feColorMatrix type="matrix" values="0 0 0 0 0 0 0 0 0 0 0 0 0 0 0 0 0 0 0.2 0"/>
<feBlend mode="normal" in2="BackgroundImageFix" result="effect1_dropShadow_1_5822"/>
<feBlend mode="normal" in="SourceGraphic" in2="effect1_dropShadow_1_5822" result="shape"/>
</filter>
</defs>
</svg>
