<svg width="281" height="101" viewBox="0 0 281 101" fill="none" xmlns="http://www.w3.org/2000/svg">
<path d="M29.3523 49.6733C28.7588 50.7689 27.7545 51.3167 26.3394 51.3167C24.9699 51.3167 24.057 51.1341 23.6005 50.7689C23.1896 50.358 22.9842 49.3309 22.9842 47.6875C22.9842 45.9985 23.8744 42.1183 25.6547 36.047C27.435 29.93 28.3252 26.415 28.3252 25.502C28.3252 24.5434 28.1426 24.064 27.7774 24.064C27.2296 24.064 26.5448 24.5434 25.7232 25.502C24.9015 26.415 24.2167 27.328 23.6689 28.2409L22.8473 29.6789C19.9257 34.4264 17.2552 39.1968 14.8358 43.99C12.462 48.7375 10.7045 52.2296 9.56331 54.4665C8.46772 56.6576 7.50909 58.0499 6.6874 58.6434C5.86571 59.2368 4.67883 59.5335 3.12676 59.5335C1.62033 59.5335 0.867115 59.1912 0.867115 58.5064V58.301C0.867115 57.8445 2.054 55.7218 4.42776 51.9329C13.1924 38.0099 19.7887 26.6432 24.2167 17.8329C25.2667 15.733 25.7916 13.7701 25.7916 11.9441V11.1225C25.7916 10.3008 26.7274 9.63886 28.5991 9.13671C30.5163 8.63457 32.0912 8.3835 33.3238 8.3835H35.5834C37.5007 8.3835 38.9158 8.7487 39.8288 9.47909C40.2396 9.75298 40.4451 10.1182 40.4451 10.5747C40.4451 11.0312 39.5321 14.2038 37.7061 20.0925C35.9258 25.9357 35.0356 29.4507 35.0356 30.6375C35.0356 31.8244 35.2182 32.4179 35.5834 32.4179C36.7246 32.4179 38.7332 31.0256 41.6091 28.2409C44.485 25.4107 47.7718 22.0326 51.4694 18.1068C54.4822 14.8201 57.3581 11.9898 60.0971 9.61603C60.6905 9.06824 61.3981 8.7487 62.2198 8.6574C64.0001 8.3835 65.8945 8.24656 67.9031 8.24656C69.9573 8.24656 70.9844 8.70305 70.9844 9.61603C70.9844 9.79863 70.9616 9.93558 70.916 10.0269C70.916 10.1182 70.0714 11.5105 68.3824 14.2038C66.6934 16.8514 64.6392 20.161 62.2198 24.1325C59.8004 28.0583 57.3809 32.144 54.9615 36.3893C52.5421 40.5891 50.4879 44.6062 48.7989 48.4408C47.1098 52.2296 46.2653 55.0143 46.2653 56.7946C45.8545 57.5706 45.2154 57.9586 44.3481 57.9586C39.8288 57.9586 37.5691 57.1598 37.5691 55.562C37.5691 51.8645 42.1569 42.9857 51.3324 28.9257C52.5193 27.1454 53.1127 26.027 53.1127 25.5705C53.1127 25.114 52.7704 24.8857 52.0856 24.8857C50.3509 24.8857 46.699 27.9899 41.1298 34.1982C35.5606 40.3608 31.6347 45.5192 29.3523 49.6733ZM37.0952 99.9332C35.1779 99.9332 34.2193 98.3354 34.2193 95.14C34.2193 91.9445 35.1551 88.3839 37.0267 84.4581C38.8983 80.5779 41.158 76.9944 43.8056 73.7076C46.4076 70.4665 49.1922 67.7048 52.1594 65.4223C55.1267 63.1398 57.6145 61.9986 59.6231 61.9986C60.3078 61.9986 60.6502 62.1584 60.6502 62.4779C60.6502 62.7975 60.3763 63.0942 59.8285 63.3681C58.0939 64.2811 55.8799 66.2212 53.1866 69.1884C50.5389 72.2012 48.1423 75.6249 45.9968 79.4595C43.8056 83.3396 42.71 86.6036 42.71 89.2512C42.71 90.3925 43.1209 90.9631 43.9426 90.9631C45.5403 90.9631 47.9597 88.7263 51.2008 84.2526C56.4505 77.0857 61.8143 67.9558 67.2922 56.8631C68.9356 53.5763 69.7573 51.6134 69.7573 50.9743C69.7573 50.3352 69.5747 50.0157 69.2095 50.0157C68.753 50.0157 68.2965 50.2439 67.84 50.7004C62.7273 55.0827 58.7558 57.2739 55.9255 57.2739C53.8713 57.2739 52.8442 56.1783 52.8442 53.9871C52.8442 51.7503 54.0539 48.3266 56.4733 43.7161C58.9384 39.0598 61.4263 35.4764 63.937 32.9656C64.4848 32.4179 65.238 31.9842 66.1966 31.6646C67.1552 31.2994 68.1367 31.1169 69.141 31.1169C70.1909 31.1169 70.7159 31.3451 70.7159 31.8016C70.7159 31.9842 69.9855 33.0341 68.5247 34.9514C64.0967 40.8401 61.8827 45.0399 61.8827 47.5506C61.8827 48.6462 62.3621 49.194 63.3207 49.194C65.0097 49.194 67.6117 47.5506 71.1267 44.2638C74.6874 40.9771 77.7915 37.1197 80.4392 32.6918C81.2609 31.0484 83.0868 30.2267 85.9171 30.2267C87.2866 30.2267 87.9713 30.5006 87.9713 31.0484C87.9713 31.1853 87.9028 31.3679 87.7659 31.5962C83.3379 38.9001 79.298 45.9529 75.646 52.7546C71.9941 59.5107 69.0497 64.7147 66.8129 68.3667C64.6217 72.0643 62.1566 75.8988 59.4177 79.8703C56.7244 83.8418 54.1224 87.2427 51.6117 90.0729C49.1466 92.9488 46.6359 95.2998 44.0795 97.1257C41.4775 98.9974 39.1494 99.9332 37.0952 99.9332ZM125.933 54.9458L126.07 57C126.07 57.7304 124.975 58.0956 122.783 58.0956C118.949 58.0956 117.032 57.3652 117.032 55.9044C117.032 54.4436 118.036 51.2938 120.044 46.455C122.099 41.6162 123.126 38.6033 123.126 37.4165C123.126 34.997 121.642 33.7873 118.675 33.7873L117.579 33.8558C117.032 33.8558 116.758 33.6504 116.758 33.2395C116.758 32.3722 117.077 31.5049 117.716 30.6375C118.401 29.7245 119.246 29.2681 120.25 29.2681C124.404 29.2681 128.124 28.0355 131.411 25.5705C134.698 23.1054 136.341 20.5034 136.341 17.7644C136.341 15.8015 135.725 14.432 134.492 13.656C133.306 12.88 131.662 12.4919 129.562 12.4919C127.462 12.4919 125.865 13.131 124.769 14.4092C122.076 17.7873 117.739 24.8629 111.759 35.6361C105.825 46.3637 102.492 52.96 101.762 55.4251C101.351 56.5663 100.278 57.4108 98.5436 57.9586C96.8546 58.5064 95.1884 58.7803 93.545 58.7803C91.9473 58.7803 91.1484 58.4608 91.1484 57.8217V57.6847C91.1484 57.1826 92.7233 54.261 95.8731 48.9201C99.0229 43.5791 102.492 37.6447 106.281 31.1169C110.116 24.5434 112.581 20.0012 113.676 17.4905C114.818 14.9798 115.388 12.8571 115.388 11.1225V10.4377C115.388 9.20519 118.858 8.58892 125.796 8.58892C133.237 8.58892 138.144 9.34214 140.518 10.8486C141.522 11.4877 142.367 12.4235 143.052 13.656C143.782 14.8885 144.147 16.4634 144.147 18.3807C144.147 20.298 143.371 22.2381 141.819 24.201C140.267 26.1639 138.601 27.6247 136.821 28.5833C135.086 29.4963 133.351 30.1582 131.616 30.5691C129.882 30.9799 128.581 31.3223 127.713 31.5962C126.846 31.8701 126.412 32.3037 126.412 32.8972C126.412 33.2624 126.732 33.7189 127.371 34.2667C128.056 34.7688 128.741 35.3851 129.425 36.1154C130.11 36.8458 130.452 37.6219 130.452 38.4436C130.452 39.2652 129.699 41.639 128.193 45.5649C126.686 49.445 125.933 52.572 125.933 54.9458ZM132.921 57.8902C131.871 57.388 131.003 56.4979 130.319 55.2197C129.68 53.9415 129.36 52.3666 129.36 50.495C129.36 47.5734 130.296 44.5149 132.167 41.3195C134.085 38.124 136.755 35.3851 140.179 33.1026C143.648 30.8201 147.3 29.6789 151.135 29.6789C152.915 29.6789 154.399 30.1582 155.586 31.1169C156.772 32.0755 157.366 33.0341 157.366 33.9928C157.366 34.9057 157.229 35.6361 156.955 36.1839C156.681 36.7317 156.544 37.0969 156.544 37.2795C156.544 37.8273 156.978 38.1012 157.845 38.1012C158.713 38.1012 159.374 37.9871 159.831 37.7588C160.287 37.5306 160.561 37.4165 160.653 37.4165C161.018 37.4165 161.2 37.8958 161.2 38.8544C161.2 39.7674 160.744 40.863 159.831 42.1412C158.918 43.3737 157.8 44.2867 156.476 44.8801C156.293 45.2453 156.042 45.7703 155.723 46.455C155.403 47.0941 154.65 48.2353 153.463 49.8787C152.276 51.4764 150.998 52.9144 149.628 54.1926C148.305 55.4251 146.524 56.5435 144.287 57.5478C142.096 58.5977 140.088 59.1227 138.262 59.1227C136.436 59.1227 134.655 58.7118 132.921 57.8902ZM148.19 46.1126C148.19 45.7474 147.985 45.5649 147.574 45.5649C146.981 45.5649 146.296 45.7018 145.52 45.9757C144.79 46.2496 144.379 46.3865 144.287 46.3865C144.013 46.3865 143.877 46.1811 143.877 45.7703C143.877 43.99 144.516 42.4607 145.794 41.1825C146.296 40.6347 147.026 40.1782 147.985 39.813C148.944 39.4022 149.674 38.9457 150.176 38.4436C150.724 37.8958 150.998 36.9828 150.998 35.7046C150.998 34.1525 150.176 33.3765 148.533 33.3765C145.611 33.3765 142.827 35.4535 140.179 39.6076C137.531 43.7161 136.207 47.3908 136.207 50.6319C136.207 51.7275 136.573 52.6633 137.303 53.4394C138.079 54.2154 138.992 54.6034 140.042 54.6034C142.416 54.6034 144.356 53.622 145.862 51.659C147.414 49.6505 148.19 47.8017 148.19 46.1126ZM177.055 50.8373C177.055 50.5178 176.941 50.358 176.713 50.358H176.576L175.549 50.8373C172.582 53.7133 170.162 55.699 168.291 56.7946C166.419 57.8445 164.479 58.3695 162.47 58.3695C161.557 58.3695 160.736 58.0956 160.005 57.5478C159.275 57 158.91 55.9501 158.91 54.398C158.91 52.8459 159.709 50.107 161.306 46.1811C162.904 42.2553 164.89 38.512 167.264 34.9514C169.637 31.3451 171.714 29.3137 173.495 28.8572C174.088 28.6746 174.887 28.5833 175.891 28.5833C176.896 28.5833 177.398 28.8572 177.398 29.405C177.398 29.5876 176.576 30.8658 174.933 33.2395C173.289 35.5677 171.646 38.2381 170.003 41.251C168.405 44.2638 167.606 46.5235 167.606 48.0299C167.606 49.5363 168.131 50.2896 169.181 50.2896C171.144 50.2896 173.403 49.0114 175.96 46.455C178.516 43.8987 181.871 39.8587 186.025 34.3351C187.167 32.6918 188.993 31.8701 191.503 31.8701C192.873 31.8701 193.558 32.144 193.558 32.6918C193.558 32.8287 193.489 33.0113 193.352 33.2395C186.185 44.2867 181.871 52.2068 180.411 57C180.228 57.5478 180 57.8217 179.726 57.8217H179.52C177.694 57.8217 176.781 56.3609 176.781 53.4394L177.055 50.8373ZM223.262 13.2451L226.617 13.1082C227.074 13.1082 227.302 13.1995 227.302 13.3821C227.302 13.5647 227.256 13.7929 227.165 14.0668C227.074 14.3407 226.868 14.6831 226.549 15.0939C226.275 15.5048 225.932 15.87 225.522 16.1895C224.426 17.0569 223.056 17.4905 221.413 17.4905C219.815 17.4905 218.628 17.5362 217.852 17.6275C217.122 17.7188 216.483 17.947 215.935 18.3122C215.387 18.6774 215.022 18.9513 214.84 19.1339C214.657 19.3165 214.337 19.773 213.881 20.5034C213.424 21.2338 213.105 21.7359 212.922 22.0098C210.503 25.3879 206.577 31.7559 201.145 41.114C195.758 50.4722 192.403 57.7076 191.079 62.8203C190.942 63.2768 190.509 63.505 189.778 63.505C189.093 63.505 188.135 62.9116 186.902 61.7247C185.67 60.5378 185.053 59.3281 185.053 58.0956C185.053 56.8631 186.902 53.1883 190.6 47.0713C194.343 40.9543 198.086 34.9514 201.83 29.0626C205.573 23.1282 207.444 19.8415 207.444 19.2024C207.444 18.5176 207.171 18.1068 206.623 17.9699C206.075 17.7873 205.116 17.696 203.747 17.696H201.487C200.894 17.696 200.597 17.4221 200.597 16.8743C200.597 16.3265 200.848 15.7559 201.35 15.1624C201.898 14.5233 202.697 13.9755 203.747 13.519C204.842 13.0626 205.938 12.6061 207.034 12.1496C208.175 11.6931 209.636 10.666 211.416 9.06824C213.242 7.47052 215.068 5.4163 216.894 2.90559C218.035 1.35351 219.998 0.577471 222.783 0.577471C223.741 0.577471 224.221 0.874192 224.221 1.46763C224.221 1.83283 223.193 3.49903 221.139 6.46623C219.085 9.43344 218.058 11.3051 218.058 12.0811C218.058 12.8115 218.743 13.1767 220.112 13.1767C220.66 13.2223 221.71 13.2451 223.262 13.2451ZM202.91 60.4922C202.271 60.4922 201.564 60.0813 200.787 59.2596C200.011 58.4836 199.623 57.525 199.623 56.3837C199.623 55.7446 201.107 52.5264 204.074 46.7289C207.087 40.8858 208.639 36.9371 208.73 34.8829C208.73 34.2438 209.141 33.6504 209.963 33.1026C211.424 32.2353 213.592 31.8016 216.468 31.8016C217.016 31.8016 217.586 31.9157 218.18 32.144C218.819 32.3266 219.138 32.6005 219.138 32.9656C219.138 33.1482 219.07 33.308 218.933 33.445C217.198 35.6361 214.665 39.5848 211.332 45.291C208 50.9971 205.489 55.6305 203.8 59.1912C203.572 60.0585 203.275 60.4922 202.91 60.4922ZM217.906 27.967C215.897 27.967 214.847 27.1682 214.756 25.5705V25.502C214.756 24.1325 215.418 23.0141 216.742 22.1468C218.111 21.2794 219.458 20.8458 220.782 20.8458C222.79 20.8458 223.84 21.6446 223.932 23.2423C223.932 24.6118 223.27 25.7531 221.946 26.666C220.622 27.5334 219.275 27.967 217.906 27.967ZM231.604 59.9444C230.326 59.9444 229.687 59.6477 229.687 59.0542L229.824 58.6434C232.563 54.5349 234.914 50.5863 236.877 46.7974C238.84 42.9628 239.821 40.475 239.821 39.3337C239.821 38.9685 239.73 38.6946 239.547 38.512C239.365 38.2838 239.091 38.1468 238.726 38.1012C236.945 38.1012 234.549 39.2424 231.536 41.5249C228.569 43.8074 225.944 46.1583 223.662 48.5777C221.425 50.9971 219.758 52.9829 218.663 54.5349C217.567 56.0414 215.924 56.7946 213.733 56.7946C212.546 56.7946 211.952 56.4979 211.952 55.9044C211.952 54.7175 214.189 50.5406 218.663 43.3737C223.137 36.1611 226.104 32.2809 227.565 31.7331C228.341 31.2766 229.322 31.0484 230.509 31.0484C231.741 31.0484 232.358 31.2994 232.358 31.8016C232.358 32.2581 231.81 33.2852 230.714 34.8829C229.619 36.4806 229.071 37.5078 229.071 37.9642C229.162 38.3294 229.345 38.512 229.619 38.512C229.938 38.512 230.212 38.4207 230.44 38.2381C237.197 32.9885 242.583 30.3636 246.6 30.3636C248.289 30.3636 249.134 31.3451 249.134 33.308C249.134 34.5862 248.175 37.348 246.258 41.5934C244.386 45.8387 241.99 49.97 239.068 53.9871C236.192 57.9586 233.704 59.9444 231.604 59.9444ZM237.802 91.4424C239.765 91.4424 242.847 88.2698 247.046 81.9245C251.292 75.6249 255.058 69.3253 258.345 63.0257C261.631 56.7261 263.275 53.2568 263.275 52.6177C263.275 51.9329 263.092 51.5906 262.727 51.5906C262.362 51.5906 261.746 51.9558 260.878 52.6861C260.011 53.3709 259.075 54.1469 258.071 55.0143C257.112 55.8816 255.857 56.6576 254.305 57.3424C252.798 58.0728 251.292 58.438 249.785 58.438C247.914 58.438 246.978 57.0456 246.978 54.261C246.978 52.0242 247.594 49.5135 248.827 46.7289C250.059 43.8987 251.748 41.1825 253.894 38.5805C256.039 35.9329 258.847 33.7189 262.316 31.9385C265.785 30.1582 269.506 29.2681 273.477 29.2681C274.482 29.2681 275.577 29.4507 276.764 29.8158C279.138 30.5462 280.325 31.8701 280.325 33.7873C280.325 35.1568 279.937 35.8416 279.161 35.8416C278.932 35.8416 278.544 35.6818 277.997 35.3622C276.353 34.2667 273.82 33.7189 270.396 33.7189C266.972 33.7189 263.64 35.4307 260.399 38.8544C257.203 42.2325 255.606 45.542 255.606 48.7831C255.606 49.9244 256.085 50.495 257.044 50.495C258.504 50.495 260.513 49.4679 263.069 47.4136C265.671 45.3138 268.251 42.2325 270.807 38.1697C270.944 37.5306 271.994 37.211 273.957 37.211C275.92 37.211 276.901 37.5534 276.901 38.2381C276.901 38.7403 275.303 42.027 272.108 48.0984C268.958 54.1241 266.288 59.077 264.096 62.9572C261.905 66.8831 259.258 71.2198 256.153 75.9673C253.095 80.7148 250.196 84.8004 247.457 88.2241C244.718 91.6478 241.865 94.5237 238.898 96.8518C235.931 99.2256 233.283 100.412 230.955 100.412C229.038 100.412 228.079 98.8148 228.079 95.6193C228.079 92.4239 229.015 88.8632 230.887 84.9374C232.758 81.0572 235.018 77.4737 237.666 74.187C240.268 70.9459 243.052 68.1841 246.019 65.9016C248.987 63.6191 251.474 62.4779 253.483 62.4779H253.688C254.236 62.4779 254.51 62.6377 254.51 62.9572C254.51 63.2768 254.236 63.5735 253.688 63.8474C251.954 64.7147 249.74 66.632 247.046 69.5992C244.399 72.6121 242.002 76.0586 239.857 79.9388C237.666 83.819 236.57 87.0829 236.57 89.7305V89.799C236.57 90.8946 236.981 91.4424 237.802 91.4424Z" fill="#22707A"/>
</svg>
